<svg width="13" height="14" viewBox="0 0 13 14" fill="none" xmlns="http://www.w3.org/2000/svg">
<path d="M1.91135 13.967C1.784 13.8906 1.74688 13.7763 1.75104 13.6376C1.75625 13.4506 1.75243 13.2637 1.75243 13.0676C1.61988 13.0572 1.49253 13.0492 1.36588 13.0368C0.751021 12.9755 0.266626 12.3935 0.353026 11.7766C0.629575 9.80362 0.89745 7.82967 1.16845 5.85639C1.2139 5.52534 1.25832 5.19394 1.30343 4.86288C1.36519 4.40986 1.82981 3.97761 2.30136 3.93639C2.39331 3.92835 2.48561 3.92299 2.57791 3.92299C5.18136 3.92232 7.78481 3.92299 10.3886 3.92165C10.6922 3.92131 10.9736 3.97761 11.2193 4.16123C11.5205 4.3864 11.6426 4.69166 11.6895 5.04818C11.8564 6.31612 12.0361 7.58272 12.211 8.84965C12.3494 9.85188 12.5004 10.8524 12.6201 11.8567C12.6756 12.3211 12.3689 12.8059 11.8532 12.9741C11.6565 13.0381 11.441 13.0479 11.2137 13.0857C11.2137 13.2573 11.2096 13.4476 11.2151 13.6376C11.219 13.7763 11.1822 13.8906 11.0548 13.967C8.00654 13.967 4.95894 13.967 1.91135 13.967ZM10.7398 13.5042C10.7398 13.3069 10.7394 13.1166 10.7398 12.9259C10.7405 12.6662 10.8085 12.6022 11.0732 12.5989C11.2436 12.5965 11.4164 12.6029 11.5836 12.5774C11.9254 12.5251 12.1926 12.1968 12.151 11.8898C12.0149 10.8829 11.8741 9.87667 11.7349 8.87009C11.5916 7.83269 11.4476 6.79529 11.3043 5.75788C11.2713 5.5193 11.2412 5.28073 11.2096 5.04215C11.1523 4.61158 10.8904 4.38171 10.441 4.38138C7.80043 4.3797 5.15985 4.38071 2.51927 4.38104C2.47763 4.38104 2.43634 4.38406 2.39505 4.38741C2.07721 4.41321 1.81142 4.65011 1.76908 4.95436C1.63098 5.94251 1.4967 6.93166 1.36033 7.92082C1.19621 9.11303 1.03104 10.3049 0.867609 11.4971C0.845749 11.6556 0.806886 11.8171 0.819378 11.9739C0.850607 12.3633 1.15908 12.5995 1.60669 12.5995C4.36733 12.5999 7.12796 12.5999 9.8886 12.5999C9.94863 12.5999 10.0097 12.5958 10.068 12.6062C10.1801 12.626 10.2484 12.6937 10.2574 12.8059C10.2665 12.9162 10.2175 12.9999 10.1072 13.0331C10.0427 13.0522 9.97118 13.0549 9.90283 13.0549C7.40521 13.0559 4.90794 13.0559 2.41032 13.0559C2.35237 13.0559 2.29477 13.0559 2.23405 13.0559C2.23405 13.2167 2.23405 13.3575 2.23405 13.5046C5.06929 13.5042 7.89654 13.5042 10.7398 13.5042Z" fill="white"/>
<path d="M0.917002 0.735283C1.19147 1.10488 1.51313 1.39472 1.90904 1.59845C2.66964 1.98915 3.49096 2.20595 4.33344 2.35573C4.49653 2.38488 4.661 2.409 4.82409 2.43815C4.99237 2.46798 5.06247 2.54605 5.06594 2.71258C5.06941 2.87309 5.06975 3.03359 5.06594 3.19409C5.06177 3.36431 4.96843 3.46249 4.82235 3.45914C4.68009 3.45579 4.59854 3.3623 4.59403 3.19577C4.5916 3.09759 4.59195 2.99975 4.59056 2.90157C4.59056 2.89319 4.58466 2.88515 4.58154 2.87744C4.18563 2.79267 3.78763 2.71761 3.39554 2.62111C2.70989 2.45256 2.03708 2.24113 1.44373 1.85813C1.03116 1.59141 0.667171 1.26806 0.436424 0.829776C0.430178 0.817713 0.423238 0.80632 0.417686 0.793922C0.280626 0.489 0.287219 0.262487 0.759122 0.263492C4.58675 0.272874 8.41437 0.268853 12.242 0.268853C12.2881 0.268853 12.3346 0.266843 12.3804 0.269859C12.5598 0.281921 12.65 0.396518 12.6167 0.5721C12.556 0.894446 12.3503 1.1347 12.1275 1.36322C11.6119 1.89231 10.9724 2.22739 10.2687 2.45893C9.69128 2.64892 9.10106 2.78831 8.49626 2.8694C8.46017 2.87443 8.42478 2.88549 8.37134 2.89755C8.37134 3.00176 8.37412 3.10731 8.37065 3.21252C8.36544 3.36666 8.27765 3.4578 8.13921 3.45914C8.00353 3.46048 7.90985 3.369 7.89979 3.21721C7.89423 3.13311 7.89874 3.04867 7.89874 2.94479C7.70894 2.95686 7.52747 2.97562 7.34565 2.97864C6.82898 2.98668 6.31197 2.99171 5.7953 2.99003C5.62181 2.98936 5.52327 2.88515 5.53263 2.74408C5.54166 2.61039 5.64228 2.53834 5.81751 2.53633C6.38033 2.52997 6.94487 2.54538 7.50595 2.5112C8.70202 2.43782 9.86721 2.22404 10.9404 1.67585C11.378 1.45235 11.7416 1.14173 12.0487 0.735618C8.33178 0.735283 4.6381 0.735283 0.917002 0.735283Z" fill="white"/>
<path d="M6.48558 12.1414C4.41406 12.1481 2.72076 10.5159 2.70133 8.49408C2.68225 6.49969 4.3811 4.85244 6.47274 4.83803C8.54912 4.82362 10.2677 6.47824 10.2639 8.48838C10.2601 10.4975 8.56751 12.1344 6.48558 12.1414ZM6.48489 11.6844C8.31039 11.6793 9.80521 10.2291 9.78995 8.47866C9.77433 6.70911 8.30137 5.29173 6.48072 5.29407C4.658 5.29642 3.1833 6.71916 3.17566 8.48268C3.16803 10.2385 4.66806 11.6897 6.48489 11.6844Z" fill="white"/>
<path d="M6.71977 6.88969C6.71977 7.16579 6.72254 7.4419 6.71803 7.718C6.71664 7.80278 6.73955 7.85136 6.82248 7.89459C7.11638 8.04839 7.25135 8.36504 7.16495 8.66694C7.08029 8.96215 6.7909 9.17559 6.47861 9.17258C6.16389 9.1699 5.87763 8.95411 5.79782 8.65957C5.71697 8.36135 5.85056 8.04638 6.13787 7.8976C6.22774 7.85103 6.24752 7.79842 6.24717 7.70996C6.24405 7.19327 6.24544 6.67658 6.24544 6.15989C6.24544 6.12437 6.24509 6.08851 6.24544 6.053C6.24856 5.85664 6.32871 5.75343 6.47965 5.75176C6.63094 5.75008 6.71734 5.85429 6.71942 6.0473C6.7215 6.27013 6.72011 6.49262 6.72011 6.71545C6.71977 6.77408 6.71977 6.83205 6.71977 6.88969ZM6.71352 8.48667C6.71317 8.36336 6.61567 8.26753 6.48867 8.26485C6.35508 8.26183 6.25133 8.36001 6.25168 8.48868C6.25203 8.60998 6.35231 8.70983 6.47688 8.71318C6.60596 8.71687 6.71387 8.61333 6.71352 8.48667Z" fill="white"/>
<path d="M6.71963 10.8839C6.71963 11.1117 6.64263 11.2219 6.48308 11.2222C6.32318 11.2226 6.24548 11.1124 6.24548 10.8849C6.24548 10.6568 6.32318 10.545 6.48204 10.5446C6.64124 10.5443 6.71963 10.6565 6.71963 10.8839Z" fill="white"/>
<path d="M3.97983 8.72253C3.93092 8.71583 3.86987 8.71483 3.81334 8.69841C3.69679 8.66425 3.64269 8.58185 3.65344 8.46529C3.66384 8.35408 3.73079 8.28274 3.84421 8.26967C3.93959 8.25862 4.03741 8.25996 4.13348 8.26632C4.26078 8.27503 4.33466 8.34805 4.34819 8.47031C4.36102 8.58821 4.28471 8.68066 4.15499 8.70645C4.10157 8.71717 4.04573 8.71684 3.97983 8.72253Z" fill="white"/>
<path d="M8.96742 8.26132C9.20675 8.26132 9.31531 8.333 9.31357 8.49043C9.31184 8.64552 9.19981 8.71787 8.96187 8.71787C8.9525 8.71787 8.94349 8.71787 8.93412 8.71787C8.72601 8.7162 8.61294 8.6338 8.61502 8.48508C8.61675 8.3387 8.7215 8.26333 8.92614 8.26132C8.94002 8.26132 8.95389 8.26132 8.96742 8.26132Z" fill="white"/>
</svg>
